<svg xmlns:xlink="http://www.w3.org/1999/xlink" xmlns="http://www.w3.org/2000/svg" id="vis_placeholder" height="592" width="738" class=""><g><rect></rect><rect></rect><rect></rect><rect></rect><rect></rect><rect></rect><rect></rect><rect></rect><rect></rect><rect></rect><g></g><g class="comparison_figure comparison_figure_x_axis axis_text" transform="translate(0,392)" fill="none" font-size="10" font-family="sans-serif" text-anchor="middle"><path class="domain" stroke="#000000" d="M50.5,6V0.5H688.5V6" fill="none"></path><g class="tick" opacity="1" transform="translate(50,0)" fill="none"><line stroke="#000000" y2="6" x1="0.5" x2="0.5" fill="none"></line><text fill="#000" y="9" x="0.5" dy="0.71em" opacity="1" style="text-anchor: middle;">2009</text></g><g class="tick" opacity="1" transform="translate(113.80000000000001,0)" fill="none"><line stroke="#000000" y2="6" x1="0.5" x2="0.5" fill="none"></line><text fill="#000" y="9" x="0.5" dy="0.71em" opacity="1" style="text-anchor: middle;">2010</text></g><g class="tick" opacity="1" transform="translate(177.60000000000002,0)" fill="none"><line stroke="#000000" y2="6" x1="0.5" x2="0.5" fill="none"></line><text fill="#000" y="9" x="0.5" dy="0.71em" opacity="1" style="text-anchor: middle;">2011</text></g><g class="tick" opacity="1" transform="translate(241.4,0)" fill="none"><line stroke="#000000" y2="6" x1="0.5" x2="0.5" fill="none"></line><text fill="#000" y="9" x="0.5" dy="0.71em" opacity="1" style="text-anchor: middle;">2012</text></g><g class="tick" opacity="1" transform="translate(305.20000000000005,0)" fill="none"><line stroke="#000000" y2="6" x1="0.5" x2="0.5" fill="none"></line><text fill="#000" y="9" x="0.5" dy="0.71em" opacity="1" style="text-anchor: middle;">2013</text></g><g class="tick" opacity="1" transform="translate(369,0)" fill="none"><line stroke="#000000" y2="6" x1="0.5" x2="0.5" fill="none"></line><text fill="#000" y="9" x="0.5" dy="0.71em" opacity="1" style="text-anchor: middle;">2014</text></g><g class="tick" opacity="1" transform="translate(432.8,0)" fill="none"><line stroke="#000000" y2="6" x1="0.5" x2="0.5" fill="none"></line><text fill="#000" y="9" x="0.5" dy="0.71em" opacity="1" style="text-anchor: middle;">2015</text></g><g class="tick" opacity="1" transform="translate(496.59999999999997,0)" fill="none"><line stroke="#000000" y2="6" x1="0.5" x2="0.5" fill="none"></line><text fill="#000" y="9" x="0.5" dy="0.71em" opacity="1" style="text-anchor: middle;">2016</text></g><g class="tick" opacity="1" transform="translate(560.4000000000001,0)" fill="none"><line stroke="#000000" y2="6" x1="0.5" x2="0.5" fill="none"></line><text fill="#000" y="9" x="0.5" dy="0.71em" opacity="1" style="text-anchor: middle;">2017</text></g><g class="tick" opacity="1" transform="translate(624.2,0)" fill="none"><line stroke="#000000" y2="6" x1="0.5" x2="0.5" fill="none"></line><text fill="#000" y="9" x="0.5" dy="0.71em" opacity="1" style="text-anchor: middle;">2018</text></g><g class="tick" opacity="1" transform="translate(688,0)" fill="none"><line stroke="#000000" y2="6" x1="0.5" x2="0.5" fill="none"></line><text fill="#000" y="9" x="0.5" dy="0.71em" opacity="1" style="text-anchor: middle;">2019</text></g></g><g class="comparison_figure comparison_figure_y_axis axis_text" transform="translate(50, 0)" fill="none" font-size="10" font-family="sans-serif" text-anchor="end" opacity="1"><path class="domain" stroke="#000000" d="M-6,392.5H0.5V100.5H-6" fill="none"></path><g class="tick" opacity="1" transform="translate(0,392)" fill="none"><line stroke="#000000" x2="-6" y1="0.5" y2="0.5" fill="none"></line><text fill="#000" x="-9" y="0.5" dy="0.32em">0</text></g><g class="tick" opacity="1" transform="translate(0, 362.79998779296875)" fill="none"><line stroke="#000000" x2="-6" y1="0.5" y2="0.5" fill="none"></line><text fill="#000" x="-9" y="0.5" dy="0.32em">50</text></g><g class="tick" opacity="1" transform="translate(0, 333.6000061035156)" fill="none"><line stroke="#000000" x2="-6" y1="0.5" y2="0.5" fill="none"></line><text fill="#000" x="-9" y="0.5" dy="0.32em">100</text></g><g class="tick" opacity="1" transform="translate(0, 304.3999938964844)" fill="none"><line stroke="#000000" x2="-6" y1="0.5" y2="0.5" fill="none"></line><text fill="#000" x="-9" y="0.5" dy="0.32em">150</text></g><g class="tick" opacity="1" transform="translate(0, 275.20001220703125)" fill="none"><line stroke="#000000" x2="-6" y1="0.5" y2="0.5" fill="none"></line><text fill="#000" x="-9" y="0.5" dy="0.32em">200</text></g><g class="tick" opacity="1" transform="translate(0, 246)" fill="none"><line stroke="#000000" x2="-6" y1="0.5" y2="0.5" fill="none"></line><text fill="#000" x="-9" y="0.5" dy="0.32em">250</text></g><g class="tick" opacity="1" transform="translate(0, 216.8000030517578)" fill="none"><line stroke="#000000" x2="-6" y1="0.5" y2="0.5" fill="none"></line><text fill="#000" x="-9" y="0.5" dy="0.32em">300</text></g><g class="tick" opacity="1" transform="translate(0, 187.60000610351562)" fill="none"><line stroke="#000000" x2="-6" y1="0.5" y2="0.5" fill="none"></line><text fill="#000" x="-9" y="0.5" dy="0.32em">350</text></g><g class="tick" opacity="1" transform="translate(0, 158.39999389648438)" fill="none"><line stroke="#000000" x2="-6" y1="0.5" y2="0.5" fill="none"></line><text fill="#000" x="-9" y="0.5" dy="0.32em">400</text></g><g class="tick" opacity="1" transform="translate(0, 129.1999969482422)" fill="none"><line stroke="#000000" x2="-6" y1="0.5" y2="0.5" fill="none"></line><text fill="#000" x="-9" y="0.5" dy="0.32em">450</text></g><g class="tick" opacity="1" transform="translate(0, 100)" fill="none"><line stroke="#000000" x2="-6" y1="0.5" y2="0.5" fill="none"></line><text fill="#000" x="-9" y="0.5" dy="0.32em">500</text></g></g><text text-anchor="left" class="comparison_figure figure_caption" y="442" x="36.9" opacity="1">The black line and dots represent West Sussex whilst the grey line with no dots represents the comparison area.</text><text text-anchor="left" class="comparison_figure figure_caption" y="467" x="36.9" opacity="1">Wider shaded areas around the lines denote greater uncertainty in the estimate.</text><text text-anchor="left" class="comparison_figure figure_caption" y="492" x="36.9" opacity="1">If the shaded areas for two lines overlap, it is an indication that the estimates may be statistically similar.</text><text text-anchor="left" id="section_vis_placeholder_text" y="29.6" x="36.9" opacity="1" style="font-weight: bold;">Rate of Deaths per 100,000 (Age standardised) in West Sussex</text><text text-anchor="left" id="section_vis_placeholder_text_2" x="36.9" y="47.1" opacity="1" style="font-weight: bold;"> compared to England from the cause category All causes.</text><circle class="comparison_figure_key comparison_figure" cx="60.59" cy="64.6" r="6" style="" fill="#00A9E0"></circle><circle class="comparison_figure_key comparison_figure" cx="195.59" cy="64.6" r="6" style="" fill="#F0B323"></circle><circle class="comparison_figure_key comparison_figure" cx="330.59000000000003" cy="64.6" r="6" style="" fill="#BF0D3E"></circle><text class="comparison_figure_key comparison_figure" x="70.59" y="69.6" text-anchor="left" font-size=".8rem">Significantly lower</text><text class="comparison_figure_key comparison_figure" x="205.59" y="69.6" text-anchor="left" font-size=".8rem">Similar</text><text class="comparison_figure_key comparison_figure" x="340.59000000000003" y="69.6" text-anchor="left" font-size=".8rem">Significantly higher</text><path class="rate_over_time_comparison_lines rate_over_time_comparison_figure" fill="none" stroke-width="1" stroke="#000000" d="M50,136.6481024L113.80000000000001,139.6455992L177.60000000000002,142.9237664L241.4,143.5414632L305.20000000000005,140.7456216L369,146.49153919999998L432.8,146.0599632L496.59999999999997,148.36775599999999L560.4000000000001,150.2179848L624.2,145.568936L688,146.2742328" opacity="1"></path><path class="rate_over_time_comparison_lines rate_over_time_comparison_figure" fill="#999999" opacity="0.1" stroke="none" d="M50,110.74670960000003L113.80000000000001,116.7773856L177.60000000000002,121.4072792L241.4,121.9046136L305.20000000000005,121.56087120000001L369,123.55984480000001L432.8,122.41719040000004L496.59999999999997,124.3995784L560.4000000000001,126.28911039999997L624.2,123.55359600000003L688,123.72943839999999L688,128.6370824L624.2,127.88015999999999L560.4000000000001,129.7764664L496.59999999999997,126.94219759999999L432.8,124.58342160000001L369,125.73372640000002L305.20000000000005,123.74211120000001L241.4,124.11628000000002L177.60000000000002,123.5777152L113.80000000000001,119.0243256L50,112.86791440000002Z"></path><path class="rate_over_time_comparison_lines rate_over_time_comparison_figure" fill="none" stroke="#999999" stroke-width="1" d="M50,111.84422080000002L113.80000000000001,117.89113199999997L177.60000000000002,122.50444000000005L241.4,123.0137464L305.20000000000005,122.60955999999999L369,124.65315119999997L432.8,123.50378080000002L496.59999999999997,125.74377120000003L560.4000000000001,128.0753328L624.2,125.74190239999996L688,126.25757440000001" opacity="1"></path><path class="rate_over_time_comparison_lines rate_over_time_comparison_figure" fill="#30336B" opacity="0.1" stroke="none" d="M50,128.6664576L113.80000000000001,132.32615199999998L177.60000000000002,135.4293528L241.4,135.73945680000003L305.20000000000005,133.33764000000002L369,139.49580319999998L432.8,138.3916344L496.59999999999997,140.0850592L560.4000000000001,140.2308256L624.2,127.58068479999997L688,122.7740144L688,167.376664L624.2,160.9005712L560.4000000000001,159.81164479999998L496.59999999999997,156.12829839999998L432.8,153.54771920000002L369,153.4739016L305.20000000000005,148.3363368L241.4,150.64991120000002L177.60000000000002,150.6101992L113.80000000000001,146.868044L50,144.43235520000002Z"></path><circle class="rate_over_time_comparison_figure" id="rate_comparison_dots" cx="50" cy="136.6481024" r="6" fill="#00A9E0" opacity="1"></circle><circle class="rate_over_time_comparison_figure" id="rate_comparison_dots" cx="113.80000000000001" cy="139.6455992" r="6" fill="#00A9E0" opacity="1"></circle><circle class="rate_over_time_comparison_figure" id="rate_comparison_dots" cx="177.60000000000002" cy="142.9237664" r="6" fill="#00A9E0" opacity="1"></circle><circle class="rate_over_time_comparison_figure" id="rate_comparison_dots" cx="241.4" cy="143.5414632" r="6" fill="#00A9E0" opacity="1"></circle><circle class="rate_over_time_comparison_figure" id="rate_comparison_dots" cx="305.20000000000005" cy="140.7456216" r="6" fill="#00A9E0" opacity="1"></circle><circle class="rate_over_time_comparison_figure" id="rate_comparison_dots" cx="369" cy="146.49153919999998" r="6" fill="#00A9E0" opacity="1"></circle><circle class="rate_over_time_comparison_figure" id="rate_comparison_dots" cx="432.8" cy="146.0599632" r="6" fill="#00A9E0" opacity="1"></circle><circle class="rate_over_time_comparison_figure" id="rate_comparison_dots" cx="496.59999999999997" cy="148.36775599999999" r="6" fill="#00A9E0" opacity="1"></circle><circle class="rate_over_time_comparison_figure" id="rate_comparison_dots" cx="560.4000000000001" cy="150.2179848" r="6" fill="#00A9E0" opacity="1"></circle><circle class="rate_over_time_comparison_figure" id="rate_comparison_dots" cx="624.2" cy="145.568936" r="6" fill="#F0B323" opacity="1"></circle><circle class="rate_over_time_comparison_figure" id="rate_comparison_dots" cx="688" cy="146.2742328" r="6" fill="#F0B323" opacity="1"></circle></g></svg>