<svg xmlns:xlink="http://www.w3.org/1999/xlink" xmlns="http://www.w3.org/2000/svg" id="vis_placeholder" height="592" width="738" class=""><g><rect></rect><rect></rect><rect></rect><rect></rect><rect></rect><rect></rect><rect></rect><rect></rect><rect></rect><rect></rect><g></g><g class="comparison_figure comparison_figure_x_axis axis_text" transform="translate(0,392)" fill="none" font-size="10" font-family="sans-serif" text-anchor="middle"><path class="domain" stroke="#000000" d="M50.5,6V0.5H688.5V6" fill="none"></path><g class="tick" opacity="1" transform="translate(50,0)" fill="none"><line stroke="#000000" y2="6" x1="0.5" x2="0.5" fill="none"></line><text fill="#000" y="9" x="0.5" dy="0.71em" opacity="1" style="text-anchor: middle;">2009</text></g><g class="tick" opacity="1" transform="translate(113.80000000000001,0)" fill="none"><line stroke="#000000" y2="6" x1="0.5" x2="0.5" fill="none"></line><text fill="#000" y="9" x="0.5" dy="0.71em" opacity="1" style="text-anchor: middle;">2010</text></g><g class="tick" opacity="1" transform="translate(177.60000000000002,0)" fill="none"><line stroke="#000000" y2="6" x1="0.5" x2="0.5" fill="none"></line><text fill="#000" y="9" x="0.5" dy="0.71em" opacity="1" style="text-anchor: middle;">2011</text></g><g class="tick" opacity="1" transform="translate(241.4,0)" fill="none"><line stroke="#000000" y2="6" x1="0.5" x2="0.5" fill="none"></line><text fill="#000" y="9" x="0.5" dy="0.71em" opacity="1" style="text-anchor: middle;">2012</text></g><g class="tick" opacity="1" transform="translate(305.20000000000005,0)" fill="none"><line stroke="#000000" y2="6" x1="0.5" x2="0.5" fill="none"></line><text fill="#000" y="9" x="0.5" dy="0.71em" opacity="1" style="text-anchor: middle;">2013</text></g><g class="tick" opacity="1" transform="translate(369,0)" fill="none"><line stroke="#000000" y2="6" x1="0.5" x2="0.5" fill="none"></line><text fill="#000" y="9" x="0.5" dy="0.71em" opacity="1" style="text-anchor: middle;">2014</text></g><g class="tick" opacity="1" transform="translate(432.8,0)" fill="none"><line stroke="#000000" y2="6" x1="0.5" x2="0.5" fill="none"></line><text fill="#000" y="9" x="0.5" dy="0.71em" opacity="1" style="text-anchor: middle;">2015</text></g><g class="tick" opacity="1" transform="translate(496.59999999999997,0)" fill="none"><line stroke="#000000" y2="6" x1="0.5" x2="0.5" fill="none"></line><text fill="#000" y="9" x="0.5" dy="0.71em" opacity="1" style="text-anchor: middle;">2016</text></g><g class="tick" opacity="1" transform="translate(560.4000000000001,0)" fill="none"><line stroke="#000000" y2="6" x1="0.5" x2="0.5" fill="none"></line><text fill="#000" y="9" x="0.5" dy="0.71em" opacity="1" style="text-anchor: middle;">2017</text></g><g class="tick" opacity="1" transform="translate(624.2,0)" fill="none"><line stroke="#000000" y2="6" x1="0.5" x2="0.5" fill="none"></line><text fill="#000" y="9" x="0.5" dy="0.71em" opacity="1" style="text-anchor: middle;">2018</text></g><g class="tick" opacity="1" transform="translate(688,0)" fill="none"><line stroke="#000000" y2="6" x1="0.5" x2="0.5" fill="none"></line><text fill="#000" y="9" x="0.5" dy="0.71em" opacity="1" style="text-anchor: middle;">2019</text></g></g><g class="comparison_figure comparison_figure_y_axis axis_text" transform="translate(50, 0)" fill="none" font-size="10" font-family="sans-serif" text-anchor="end" opacity="1"><path class="domain" stroke="#000000" d="M-6,392.5H0.5V100.5H-6" fill="none"></path><g class="tick" opacity="1" transform="translate(0,392)" fill="none"><line stroke="#000000" x2="-6" y1="0.5" y2="0.5" fill="none"></line><text fill="#000" x="-9" y="0.5" dy="0.32em">0</text></g><g class="tick" opacity="1" transform="translate(0, 367.6666564941406)" fill="none"><line stroke="#000000" x2="-6" y1="0.5" y2="0.5" fill="none"></line><text fill="#000" x="-9" y="0.5" dy="0.32em">100</text></g><g class="tick" opacity="1" transform="translate(0, 343.3333435058594)" fill="none"><line stroke="#000000" x2="-6" y1="0.5" y2="0.5" fill="none"></line><text fill="#000" x="-9" y="0.5" dy="0.32em">200</text></g><g class="tick" opacity="1" transform="translate(0, 319)" fill="none"><line stroke="#000000" x2="-6" y1="0.5" y2="0.5" fill="none"></line><text fill="#000" x="-9" y="0.5" dy="0.32em">300</text></g><g class="tick" opacity="1" transform="translate(0, 294.6666564941406)" fill="none"><line stroke="#000000" x2="-6" y1="0.5" y2="0.5" fill="none"></line><text fill="#000" x="-9" y="0.5" dy="0.32em">400</text></g><g class="tick" opacity="1" transform="translate(0, 270.3333435058594)" fill="none"><line stroke="#000000" x2="-6" y1="0.5" y2="0.5" fill="none"></line><text fill="#000" x="-9" y="0.5" dy="0.32em">500</text></g><g class="tick" opacity="1" transform="translate(0, 246)" fill="none"><line stroke="#000000" x2="-6" y1="0.5" y2="0.5" fill="none"></line><text fill="#000" x="-9" y="0.5" dy="0.32em">600</text></g><g class="tick" opacity="1" transform="translate(0, 221.6666717529297)" fill="none"><line stroke="#000000" x2="-6" y1="0.5" y2="0.5" fill="none"></line><text fill="#000" x="-9" y="0.5" dy="0.32em">700</text></g><g class="tick" opacity="1" transform="translate(0, 197.3333282470703)" fill="none"><line stroke="#000000" x2="-6" y1="0.5" y2="0.5" fill="none"></line><text fill="#000" x="-9" y="0.5" dy="0.32em">800</text></g><g class="tick" opacity="1" transform="translate(0, 173)" fill="none"><line stroke="#000000" x2="-6" y1="0.5" y2="0.5" fill="none"></line><text fill="#000" x="-9" y="0.5" dy="0.32em">900</text></g><g class="tick" opacity="1" transform="translate(0, 148.6666717529297)" fill="none"><line stroke="#000000" x2="-6" y1="0.5" y2="0.5" fill="none"></line><text fill="#000" x="-9" y="0.5" dy="0.32em">1,000</text></g><g class="tick" opacity="1" transform="translate(0, 124.33333587646484)" fill="none"><line stroke="#000000" x2="-6" y1="0.5" y2="0.5" fill="none"></line><text fill="#000" x="-9" y="0.5" dy="0.32em">1,100</text></g><g class="tick" opacity="1" transform="translate(0, 100)" fill="none"><line stroke="#000000" x2="-6" y1="0.5" y2="0.5" fill="none"></line><text fill="#000" x="-9" y="0.5" dy="0.32em">1,200</text></g></g><text text-anchor="left" class="comparison_figure figure_caption" y="442" x="36.9" opacity="1">The black line and dots represent West Sussex whilst the grey line with no dots represents the comparison area.</text><text text-anchor="left" class="comparison_figure figure_caption" y="467" x="36.9" opacity="1">Wider shaded areas around the lines denote greater uncertainty in the estimate.</text><text text-anchor="left" class="comparison_figure figure_caption" y="492" x="36.9" opacity="1">If the shaded areas for two lines overlap, it is an indication that the estimates may be statistically similar.</text><text text-anchor="left" id="section_vis_placeholder_text" y="29.6" x="36.9" opacity="1" style="font-weight: bold;">Rate of Deaths per 100,000 (All ages) in West Sussex</text><text text-anchor="left" id="section_vis_placeholder_text_2" x="36.9" y="47.1" opacity="1" style="font-weight: bold;"> compared to England from the cause category All causes.</text><circle class="comparison_figure_key comparison_figure" cx="60.59" cy="64.6" r="6" style="" fill="#00A9E0"></circle><circle class="comparison_figure_key comparison_figure" cx="195.59" cy="64.6" r="6" style="" fill="#F0B323"></circle><circle class="comparison_figure_key comparison_figure" cx="330.59000000000003" cy="64.6" r="6" style="" fill="#BF0D3E"></circle><text class="comparison_figure_key comparison_figure" x="70.59" y="69.6" text-anchor="left" font-size=".8rem">Significantly lower</text><text class="comparison_figure_key comparison_figure" x="205.59" y="69.6" text-anchor="left" font-size=".8rem">Similar</text><text class="comparison_figure_key comparison_figure" x="340.59000000000003" y="69.6" text-anchor="left" font-size=".8rem">Significantly higher</text><path class="rate_over_time_comparison_lines rate_over_time_comparison_figure" fill="none" stroke-width="1" stroke="#000000" d="M50,134.12319299999996L113.80000000000001,133.41241633333334L177.60000000000002,132.97298066666667L241.4,131.38703133333337L305.20000000000005,128.82159233333329L369,134.54199400000005L432.8,133.09486633333336L496.59999999999997,135.50793L560.4000000000001,135.00707700000004L624.2,126.79469866666665L688,125.0866446666667" opacity="1"></path><path class="rate_over_time_comparison_lines rate_over_time_comparison_figure" fill="#999999" opacity="0.1" stroke="none" d="M50,180.10073433333332L113.80000000000001,181.85509466666667L177.60000000000002,182.780832L241.4,180.65005933333333L305.20000000000005,179.145578L369,179.94869966666664L432.8,177.946334L496.59999999999997,178.62258166666666L560.4000000000001,178.15360533333336L624.2,173.31774466666667L688,171.015349L688,174.90634633333332L624.2,176.675039L560.4000000000001,180.773113L496.59999999999997,180.59582033333334L432.8,179.60657300000003L369,181.61774733333334L305.20000000000005,180.8133116666667L241.4,182.346044L177.60000000000002,184.38950866666667L113.80000000000001,183.54640733333335L50,181.647361Z"></path><path class="rate_over_time_comparison_lines rate_over_time_comparison_figure" fill="none" stroke="#999999" stroke-width="1" d="M50,180.89789433333334L113.80000000000001,182.709949L177.60000000000002,183.5835156666667L241.4,181.50598433333334L305.20000000000005,179.94626633333334L369,180.78352766666666L432.8,178.794959L496.59999999999997,179.652417L560.4000000000001,179.50091766666665L624.2,175.01402133333332L688,172.97084866666665" opacity="1"></path><path class="rate_over_time_comparison_lines rate_over_time_comparison_figure" fill="#30336B" opacity="0.1" stroke="none" d="M50,126.51897766666661L113.80000000000001,126.32871533333332L177.60000000000002,125.58482100000003L241.4,123.73901600000005L305.20000000000005,121.36994700000002L369,127.28791100000001L432.8,125.58866566666666L496.59999999999997,127.23182266666663L560.4000000000001,124.86178033333334L624.2,108.56204833333334L688,101.15359466666666L688,146.72549933333335L624.2,142.38776633333333L560.4000000000001,144.69558833333335L496.59999999999997,143.459966L432.8,140.433021L369,141.54400800000005L305.20000000000005,136.50489100000001L241.4,138.369457L177.60000000000002,140.47068900000002L113.80000000000001,140.347465L50,141.63474699999998Z"></path><circle class="rate_over_time_comparison_figure" id="rate_comparison_dots" cx="50" cy="134.12319299999996" r="6" fill="#BF0D3E" opacity="1"></circle><circle class="rate_over_time_comparison_figure" id="rate_comparison_dots" cx="113.80000000000001" cy="133.41241633333334" r="6" fill="#BF0D3E" opacity="1"></circle><circle class="rate_over_time_comparison_figure" id="rate_comparison_dots" cx="177.60000000000002" cy="132.97298066666667" r="6" fill="#BF0D3E" opacity="1"></circle><circle class="rate_over_time_comparison_figure" id="rate_comparison_dots" cx="241.4" cy="131.38703133333337" r="6" fill="#BF0D3E" opacity="1"></circle><circle class="rate_over_time_comparison_figure" id="rate_comparison_dots" cx="305.20000000000005" cy="128.82159233333329" r="6" fill="#BF0D3E" opacity="1"></circle><circle class="rate_over_time_comparison_figure" id="rate_comparison_dots" cx="369" cy="134.54199400000005" r="6" fill="#BF0D3E" opacity="1"></circle><circle class="rate_over_time_comparison_figure" id="rate_comparison_dots" cx="432.8" cy="133.09486633333336" r="6" fill="#BF0D3E" opacity="1"></circle><circle class="rate_over_time_comparison_figure" id="rate_comparison_dots" cx="496.59999999999997" cy="135.50793" r="6" fill="#BF0D3E" opacity="1"></circle><circle class="rate_over_time_comparison_figure" id="rate_comparison_dots" cx="560.4000000000001" cy="135.00707700000004" r="6" fill="#BF0D3E" opacity="1"></circle><circle class="rate_over_time_comparison_figure" id="rate_comparison_dots" cx="624.2" cy="126.79469866666665" r="6" fill="#BF0D3E" opacity="1"></circle><circle class="rate_over_time_comparison_figure" id="rate_comparison_dots" cx="688" cy="125.0866446666667" r="6" fill="#BF0D3E" opacity="1"></circle></g></svg>